<svg xmlns="http://www.w3.org/2000/svg" fill="none" viewBox="0 0 600 242">
  <path d="M237.458 218.503l27.862 23.952H88.367l-24.93-23.952h174.021zm126.115 0l27.863 23.952h-20.531l-24.93-23.952h17.598zm-27.373 0l27.862 23.952h-20.53l-24.93-23.952H336.2zm-27.373 0l27.862 23.952h-20.53l-24.93-23.952h17.598zm-27.375 0l27.862 23.952h-20.53l-24.93-23.952h17.598z" fill="#01E8AA"/>
  <path d="M600.163 170.599V19.553L574.256 0v185.752l-37.64 37.15H415.389l-40.084-32.751H66.371l-42.528-42.038V0H17v151.046l46.438 46.438h307.957l41.061 32.262h128.56l59.147-59.147z" fill="#01E8AA"/>
  <path d="M569.367 182.819V.978H30.687v144.691l39.105 39.105h306.98l40.572 33.729h116.828l35.195-35.684z" fill="#01E8AA" fill-opacity=".2"/>
</svg>
