<svg xmlns="http://www.w3.org/2000/svg" fill="none" viewBox="0 0 600 240">
  <path d="M237.458 218.503l27.862 23.952H88.367l-24.93-23.952h174.021zm126.115 0l27.863 23.952h-20.531l-24.93-23.952h17.598zm-27.373 0l27.862 23.952h-20.53l-24.93-23.952H336.2zm-27.373 0l27.862 23.952h-20.53l-24.93-23.952h17.598zm-27.375 0l27.862 23.952h-20.53l-24.93-23.952h17.598z" fill="#3180FF" fill-opacity=".75"/>
  <path d="M600.163 170.598V19.553L576 0v185.752l-37.639 37.15H415.389l-40.084-32.751H66.527L24 148.113V96l-6.843 8v47.046l46.438 46.438 307.8-.001 41.061 32.263h128.56l59.147-59.148z" fill="#3180FF" fill-opacity=".75"/>
  <path d="M568.5 182.819V143.5H32.21v3.691l37.582 37.583h306.98l40.572 33.729h116.828l34.328-35.684z" fill="#3180FF" fill-opacity=".1"/>
</svg>
