<svg xmlns="http://www.w3.org/2000/svg" fill="none" viewBox="0 0 597 248">
  <path d="M225.5 223.5L254 248H73l-25.5-24.5h178zm129 0L383 248h-21l-25.5-24.5h18zm-28 0L355 248h-21l-25.5-24.5h18zm-28 0L327 248h-21l-25.5-24.5h18zm-28 0L299 248h-21l-25.5-24.5h18z" fill="#01E8AA"/>
  <path d="M596.5 174.5V20L570 0v190l-38.5 38h-124l-41-33.5h-316L7 151.5V0H0v154.5L47.5 202h315l42 33H536l60.5-60.5z" fill="#01E8AA"/>
  <path d="M565 187V1H14v148l40 40h314l41.5 34.5H529l36-36.5z" fill="#01E8AA" fill-opacity=".2"/>
</svg>
