<svg xmlns="http://www.w3.org/2000/svg" viewBox="0 0 141.52 27.89">
  <g data-name="Layer 2">
    <path d="M52.77 5.14a.72.72 0 01-.51.22h-7.45a2.51 2.51 0 00-1.81.53 2.79 2.79 0 00-.53 2v3.31H52a.73.73 0 01.51.21.7.7 0 01.22.52v3.48a.75.75 0 01-.73.74h-9.54v10.67a.7.7 0 01-.22.52.74.74 0 01-.52.22h-4.79a.74.74 0 01-.52-.22.7.7 0 01-.22-.52v-19a9.24 9.24 0 01.74-4 5.87 5.87 0 012-2.39A7.38 7.38 0 0141.78.29a19.74 19.74 0 013.4-.29q1.47 0 2.58.06c.75 0 1.4.07 2 .12l1.45.15 1.08.15c.49.07.73.32.73.73v3.41a.7.7 0 01-.25.52zm25.06 17.37a7.83 7.83 0 01-5.63 4.9 18 18 0 01-8.25 0 8.18 8.18 0 01-3.36-1.67 7.93 7.93 0 01-2.26-3.23 14 14 0 01-.82-5.19V1a.63.63 0 01.22-.5.69.69 0 01.51-.21h4.81a.73.73 0 01.51.21.63.63 0 01.22.49v16.33a12.74 12.74 0 00.2 2.4 3.91 3.91 0 00.7 1.65 3 3 0 001.32 1 5.86 5.86 0 002.07.31 5.92 5.92 0 002.08-.31 3 3 0 001.32-1 3.91 3.91 0 00.71-1.65 11.15 11.15 0 00.22-2.4V1a.66.66 0 01.22-.5.73.73 0 01.52-.21h4.77a.79.79 0 01.53.21.62.62 0 01.24.49v16.33a13.53 13.53 0 01-.85 5.19zm27.06 4.64a1.39 1.39 0 01-1 .41h-3.6a2.4 2.4 0 01-1-.21 2.21 2.21 0 01-.88-.93L90 12c-.13-.19-.24-.29-.33-.29s-.19.1-.19.29v14.82a.7.7 0 01-.22.52.72.72 0 01-.51.22h-4.31a.75.75 0 01-.74-.74V1.69a1.35 1.35 0 01.41-1 1.35 1.35 0 011-.41h3.71a1.36 1.36 0 01.88.28 3 3 0 01.66.86L99 16.55c.12.19.22.29.3.29s.18-.11.18-.33V1a.63.63 0 01.26-.5.73.73 0 01.51-.21h4.33a.73.73 0 01.52.21.66.66 0 01.22.49v25.17a1.3 1.3 0 01-.43.99zm36.63-13.85a12.35 12.35 0 00-.83-4.3c-.18-.47-.42-.92-.65-1.38a8.8 8.8 0 00-.76-1.38 25.58 25.58 0 00-1.89-2.14 8.77 8.77 0 00-1.66-1.45 17 17 0 00-3-1.55 13.11 13.11 0 00-4.55-.94h-11a1.73 1.73 0 00-.36 0 .61.61 0 00-.24 0h-5.95a1.28 1.28 0 00-1.38 1.39v4.92c0 .49.1.59.6.59h6.76a.68.68 0 00.21 0 1.37 1.37 0 00.31 0h10.93a6.8 6.8 0 014.83 1.84 6.23 6.23 0 011.63 2.28 7.34 7.34 0 01.58 2.72 6.34 6.34 0 01-.8 3.18 7 7 0 01-2.9 2.94 7.25 7.25 0 01-3.36.82h-18.26c-.38 0-.54.14-.53.53v4.93c0 .93.41 1.34 1.34 1.35h17.16a13.21 13.21 0 005.19-1 14.63 14.63 0 003.91-2.38 13 13 0 003.39-4.41 13 13 0 00.67-1.59 13.46 13.46 0 00.63-4.41zM0 14.52a12.33 12.33 0 00.82 4.29 14.44 14.44 0 00.65 1.38 8.37 8.37 0 00.76 1.38 25.72 25.72 0 001.89 2.15 8.77 8.77 0 001.66 1.45 18.93 18.93 0 003 1.55 12.88 12.88 0 004.55.93h11a1.84 1.84 0 00.36 0 .88.88 0 00.24 0h5.95a1.28 1.28 0 001.38-1.38v-4.92c0-.49-.1-.59-.6-.59H13.48a7.43 7.43 0 01-2-.24 7.54 7.54 0 01-2.83-1.6A6.12 6.12 0 017 16.63a7.43 7.43 0 01-.58-2.72 6.59 6.59 0 01.8-3.19 7 7 0 012.9-2.93A7.13 7.13 0 0113.49 7h18.26c.38 0 .54-.15.54-.54V1.54c0-.93-.41-1.35-1.34-1.35H13.79a13.65 13.65 0 00-5.19 1 15.06 15.06 0 00-3.91 2.3A13.14 13.14 0 001.3 7.9a13.74 13.74 0 00-.67 1.59A13.52 13.52 0 000 13.91v.61z" data-name="Layer 1" fill="#fff"/>
  </g>
</svg>
