<svg xmlns="http://www.w3.org/2000/svg" fill="none" viewBox="0 0 600 242">
  <path d="M360.116 23.781L332.452 0h175.69l24.752 23.781H360.116zm-125.216 0L207.236 0h20.384l24.752 23.781H234.9zm27.179 0L234.415 0h20.384l24.752 23.781h-17.472zm27.178 0L261.593 0h20.384l24.752 23.781h-17.472zm27.179 0L288.772 0h20.384l24.752 23.781h-17.472z" fill="#02E0FC"/>
  <path d="M0 71.344V221.31L24.5 242V57.574l38.593-38.161h120.362l39.797 32.517H534l42.224 41.739v83.055l6.794-8V90.757L536.912 44.65H227.135l-40.768-32.032H58.725L0 71.344z" fill="#02E0FC"/>
  <path d="M32.5 59.21V112H568V96.096l-41.415-38.827H221.797l-40.283-33.487H65.52L32.5 59.21z" fill="#01E8AA" fill-opacity=".1"/>
</svg>
